<svg width="49" height="26" viewBox="0 0 49 26" fill="none" xmlns="http://www.w3.org/2000/svg">
<path d="M10.3008 0C7.89063 0 6 1.93359 6 4.40234C6 5.3125 6.26172 5.875 6.51562 6.30859L6.59375 6.46875L6.69922 6.59766C6.75 6.66797 6.85156 6.8125 6.98438 7H0V14.125L0.503906 15.6328L3.50391 24.6328L3.95703 26H8.52344L8.99219 24.6523L9 24.625L9.00781 24.6523L9.47656 26H19.4219L19.8906 24.6602L20.1211 24H21.0781L21.3125 24.6602L21.7812 26H33V25.4531C33.3828 25.7109 33.9961 26 34.8008 26H43.0977C45.6094 26 47.5 24.1094 47.5 21.5977C47.5 20.6875 47.2383 20.125 46.9844 19.6914L46.8906 19.5039L46.7617 19.3477L46.4805 19H49V7H45.2656C45.6094 6.33594 45.8008 5.58594 45.8008 4.80078C45.8008 2.15234 43.6484 0 41 0H33V3.11719L32.3906 1.34766L31.9258 0H10.3008ZM10.3008 2H24V4H20V11H17V4H11.5977C11.1992 4 10.9023 4.30078 10.9023 4.69922C10.9023 4.80078 11 4.89844 11 5L12.9023 7.59766C13 7.80078 13.1992 8 13.1992 8.59766C13.1992 10 12.1016 11 10.8008 11H2V9H9.60156C10 9 10.3008 8.69922 10.1992 8.30078C10.1992 8.19922 10.0977 8.10156 10.0977 8C10.0977 8 8.60156 5.80078 8.30078 5.40234C8.19922 5.19922 8 5 8 4.40234C8 3 9 2 10.3008 2ZM26.3008 2H30.5L33.5977 11H31.0977L30.4023 9H26.5977L25.9023 11H23.4023L26.3008 2ZM35 2H41C42.5 2 43.8008 3.19922 43.8008 4.80078C43.8008 6.10156 42.8984 7.19922 41.6992 7.5C41.6992 7.5 42.3008 8 42.8008 8.59766C43 8.80078 43.1992 9 43.5977 9H47V11H41.8008C41.4023 11 41.1016 10.8008 41 10.6992C40.2227 10 38.6602 8.51562 38 7.89062C38 8.875 38 11 38 11H35V2ZM28.4023 3.40234L27.1992 7H29.5977L28.4023 3.40234ZM38 4V6H40.3008C40.9023 6 41.4023 5.60156 41.4023 5C41.4023 4.39844 40.9023 4 40.3008 4H38ZM14.207 6H15V7.35156C14.9102 7.09375 14.7969 6.88281 14.6875 6.69141L14.6094 6.54688L14.5156 6.42188L14.207 6ZM22 6H22.9102L22 8.82422V6ZM15 9.9375V13H10.8008C12.7969 13 14.4453 11.7305 15 9.9375ZM28.0195 11H28.9805L29.2148 11.6602L29.6836 13H27.3164L27.7852 11.6602L28.0195 11ZM40 12.4492C40.3828 12.707 40.9922 13 41.8008 13H42.3008C40.5586 13 39.0508 14.0391 38.3398 15.5469C37.5273 14.0312 35.9336 13 34.0977 13H40V12.4492ZM24.1406 13H26V18.5742L24.5977 14.3672L24.1406 13ZM2.39844 15H4.89844L6.19922 18.9023L7.60156 15H10.4023L11.6992 18.9023L13 15H15.5977L12.5977 24H10.9023L9 18.5L7.10156 24H5.39844L2.39844 15ZM18.5 15H22.6992L25.6992 24H23.1992L22.5 22H18.6992L18 24H15.5977L18.5 15ZM28 15H34.0977C35.5977 15 36.9023 16.1992 36.9023 17.8008C36.9023 19.1016 36 20.1992 34.8008 20.5C34.8008 20.5 35.3008 21 35.8008 21.5977C36 21.8008 36.1992 22 36.5977 22H41.9023C42.1992 22 42.5 21.6992 42.5 21.3008C42.5 21.1992 42.4023 21.1016 42.4023 21C42.4023 21 40.5 18.8008 40.1992 18.5C40.0977 18.3008 39.9023 18.1016 39.9023 17.5C39.9023 16.1016 41 15 42.3008 15H47V17H43.6992C43.3984 17 43.0977 17.4023 43.0977 17.8008C43.0977 17.9023 43.1992 18 43.1992 18.0977L45.1992 20.5977C45.3008 20.8008 45.5 21 45.5 21.5977C45.5 23.0977 44.3984 24 43.0977 24H34.8008C34.4023 24 34.1016 23.8008 34 23.6992C33.2227 23 31.6562 21.5078 31 20.8867V24H28V15ZM20.5977 16.4023L19.4023 20H21.8008L20.5977 16.4023ZM31 17V19H33.3008C33.9023 19 34.4023 18.6016 34.4023 18C34.4023 17.3984 33.9023 17 33.3008 17H31ZM38.5312 19.6406L38.5625 19.6992L38.7852 19.9141C38.8047 19.9336 38.832 19.9609 38.8633 20H38.3672C38.4258 19.8828 38.4844 19.7617 38.5312 19.6406Z" fill="white"/>
</svg>
